<svg width="195" height="29" viewBox="0 0 195 29" fill="none" xmlns="http://www.w3.org/2000/svg">
<path d="M0 14.3008L0.037685 26.0408H12.2853C9.89938 20.7674 5.50479 16.5679 0 14.3008H0Z" fill="#FBF8F5"/>
<path d="M19.1065 1.40332C21.4738 6.6793 25.8564 10.8849 31.3541 13.1563V13.1563C25.8571 15.4274 21.475 19.6326 19.108 24.9079V24.9079C16.7405 19.6323 12.3579 15.4271 6.86035 13.1563V13.1563C12.3574 10.8846 16.7395 6.67904 19.1065 1.40332V1.40332Z" fill="#FBF8F5"/>
<path d="M0 11.74L0.037685 0H12.2853C9.89938 5.27333 5.50479 9.47286 0 11.74H0Z" fill="#FBF8F5"/>
<path d="M61.8139 22.6741H58.5217L51.8545 12.3895L47.4544 16.8743V22.677H44.6929V2.56785H47.4469V13.3096L57.863 2.56641H61.425L53.7373 10.4365L61.8139 22.6741Z" fill="#FBF8F5"/>
<path d="M75.314 9.05781L66.2138 28.3554H63.4613L66.963 20.9164L61.5454 9.05347H64.3658L68.3468 18.023L72.5675 9.0607L75.314 9.05781Z" fill="#FBF8F5"/>
<path d="M77.708 2.56641H80.2826V22.6756H77.708V2.56641Z" fill="#FBF8F5"/>
<path d="M94.678 17.7338L96.9255 18.5656C95.9985 21.2088 93.9936 22.9607 90.5809 22.9607C86.4204 22.9607 83.4268 20.2322 83.4268 15.7793C83.4268 11.9021 86.0903 8.77002 90.192 8.77002C93.9333 8.77002 96.5064 10.9545 96.5064 14.5727C96.5097 15.1331 96.448 15.6921 96.3225 16.2393H86.0572C86.0858 19.3425 88.2414 20.7777 90.5794 20.7777C92.8224 20.7777 94.1398 19.629 94.678 17.7338ZM86.0587 14.4585H93.9303C93.9303 14.3138 93.9605 14.1995 93.9605 14.0563C93.9605 11.9875 92.1636 10.9545 90.1588 10.9545C88.0032 10.9545 86.3571 12.2754 86.0587 14.4585Z" fill="#FBF8F5"/>
<path d="M114.402 2.56641H118.234L127.004 22.6756H123.952L121.798 17.5615H110.84L108.656 22.6741H105.632L114.402 2.56641ZM120.779 15.1527L116.318 4.66268L111.829 15.1484L120.779 15.1527Z" fill="#FBF8F5"/>
<path d="M128.143 15.9527C128.143 11.7009 130.866 8.76987 134.727 8.76987C137.002 8.76987 138.708 9.92 139.576 11.5287V2.56641H142.179V22.6756H139.695V20.2321C139.21 21.07 138.498 21.7662 137.634 22.2466C136.769 22.727 135.786 22.9737 134.787 22.9606C130.866 22.9606 128.143 20.1178 128.143 15.9527ZM139.695 15.9238C139.695 12.7917 137.36 11.005 135.206 11.005C132.96 11.005 130.716 12.757 130.716 15.9238C130.716 19.1066 132.96 20.75 135.206 20.75C137.36 20.75 139.695 19.0834 139.695 15.9238Z" fill="#FBF8F5"/>
<path d="M145.502 18.7957C145.502 15.8372 147.927 14.5727 150.778 14.5727C151.802 14.5745 152.821 14.7207 153.801 15.0068L155.087 15.3525V13.942C155.087 11.9021 153.562 10.8677 151.527 10.8677C149.492 10.8677 148.114 11.9311 147.758 13.683L145.423 13.0508C145.961 10.5234 148.117 8.77002 151.53 8.77002C155.42 8.77002 157.574 10.8099 157.574 14.1431V22.6786H155.09V20.5201C154.373 21.9553 152.547 22.9607 150.212 22.9607C147.657 22.9607 145.502 21.4113 145.502 18.7957ZM155.08 17.5891V17.2998L153.764 16.9265C152.912 16.6587 152.025 16.5125 151.129 16.4925C149.334 16.4925 148.167 17.1812 148.167 18.6467C148.167 19.8821 149.154 20.7719 151.07 20.7719C153.375 20.7777 155.08 19.629 155.08 17.5891V17.5891Z" fill="#FBF8F5"/>
<path d="M164.156 9.05791V10.982C164.784 9.71906 166.011 8.77002 167.988 8.77002C169.604 8.77002 171.1 9.63804 171.605 11.471C172.383 9.69012 174.001 8.77002 175.766 8.77002C178.34 8.77002 180.075 10.2645 180.075 13.223V22.6743H177.502V13.7438C177.502 11.9904 176.364 11.0139 174.898 11.0139C173.491 11.0139 172.115 11.9629 172.115 14.1966V22.6714H169.507V13.8465C169.507 11.8935 168.371 11.0023 166.904 11.0023C165.496 11.0023 164.15 11.9513 164.15 14.3297V22.6598H161.575V9.05791H164.156Z" fill="#FBF8F5"/>
<path d="M183.066 19.1125L185.191 18.0492C185.999 19.9458 187.256 20.7777 189.412 20.7777C191.268 20.7777 192.465 20.0022 192.465 18.7957C192.465 17.5616 191.711 16.8137 188.723 16.4115C185.641 15.9775 183.845 14.7738 183.845 12.5054C183.845 10.2934 186.06 8.77002 188.97 8.77002C191.783 8.77002 193.28 9.97657 194.096 11.7864L192.091 12.8497C191.611 11.4421 190.445 10.7809 188.978 10.7809C187.451 10.7809 186.224 11.4421 186.224 12.5343C186.224 13.7409 187.302 14.2284 190.026 14.6017C193.493 15.0617 195 16.4694 195 18.6524C195 21.2377 192.486 22.9607 189.313 22.9607C185.969 22.9607 183.874 21.3534 183.066 19.1125Z" fill="#FBF8F5"/>
</svg>
